<svg xmlns="http://www.w3.org/2000/svg" xml:space="preserve" width="228px" height="228px" version="1.1" style="shape-rendering:geometricPrecision; text-rendering:geometricPrecision; image-rendering:optimizeQuality; fill-rule:evenodd; clip-rule:evenodd"
viewBox="0 0 228 228">
  <metadata id="CorelCorpID_0Corel-Layer"/>
  <circle fill="white" cx="114" cy="114" r="114"/>
  <path fill="black" d="M96.16 170.5l-54.16 0c-3.8,0 -6.89,-3.09 -6.89,-6.89l0 -99.22c0,-3.8 3.09,-6.89 6.89,-6.89l54.16 0c3.8,0 6.89,3.09 6.89,6.89l0 19.98c0,3.81 -3.09,6.89 -6.89,6.89 -33.35,0 -35.44,4.96 -0.69,4.96 3.8,0 6.89,3.09 6.89,6.89l0 19.98c0,3.81 -3.09,6.9 -6.89,6.9 -35.17,0 -33.27,6.47 0.69,6.47 3.8,0 6.89,3.08 6.89,6.89l0 20.26c0,3.8 -3.09,6.89 -6.89,6.89zm89.84 0l-26.18 0c-2.46,0 -4.62,-1.29 -5.84,-3.23l-12.21 -17.55 0 13.89c0,3.8 -3.09,6.89 -6.89,6.89l-22.47 0c-3.8,0 -6.89,-3.09 -6.89,-6.89l0 -99.22c0,-3.8 3.09,-6.89 6.89,-6.89l35.97 0c12.57,0 22.79,3.47 30.66,10.41 4.09,3.6 7.16,7.99 9.22,13.18 1.98,4.99 2.98,10.59 2.98,16.79 0,4.68 -0.72,9.11 -2.14,13.26 -1.43,4.19 -3.58,8.06 -6.45,11.6 -2.9,3.58 -6.28,6.44 -10.16,8.6 -0.71,0.39 -1.43,0.76 -2.16,1.1l21.08 26.94c2.33,2.99 1.8,7.3 -1.19,9.64 -1.25,0.98 -2.74,1.45 -4.22,1.45l0 0.03zm-44.78 -79.24l0 15.44 3.16 0c2.15,0 4.02,-0.18 5.61,-0.53 1.51,-0.34 2.86,-0.83 4.04,-1.47l0 -0.01c0.4,-0.23 0.73,-0.6 0.96,-1.13 0.46,-1.01 0.69,-2.47 0.69,-4.37 0,-2.74 -0.63,-4.73 -1.89,-5.99 -0.61,-0.59 -1.37,-1.05 -2.26,-1.36 -1.08,-0.38 -2.4,-0.58 -3.98,-0.58l-6.33 0z"/>
  <path fill="#FACD05" d="M96.16 163.61l-54.16 0 0 -99.22 54.16 0 0 19.98 -31.7 0 0 18.74 31.01 0 0 19.98 -31.01 0 0 20.26 31.7 0 0 20.26zm89.84 0l-26.18 0 -24.94 -35.83 0 35.83 -22.47 0 0 -99.22 35.97 0c10.84,0 19.54,2.9 26.11,8.68 6.57,5.79 9.86,14.06 9.86,24.81 0,7.9 -2.35,14.74 -7.03,20.53 -4.69,5.79 -10.89,9.23 -18.6,10.33l27.28 34.87zm-51.67 -79.24l0 29.22 10.05 0c5.15,0 9.47,-0.97 12.96,-2.87 3.49,-1.93 5.23,-5.77 5.23,-11.53 0,-4.67 -1.33,-8.29 -3.99,-10.91 -2.67,-2.6 -6.34,-3.91 -11.03,-3.91l-13.22 0z"/>

</svg>
