<svg xmlns="http://www.w3.org/2000/svg" viewBox="0 0 87.82 87.82" style="shape-rendering:geometricPrecision; text-rendering:geometricPrecision; image-rendering:optimizeQuality; fill-rule:evenodd; clip-rule:evenodd">
  <path fill="#facd05" d="M37.83 0.43c2.03,-0.29 4.06,-0.43 6.07,-0.43l2.31 5.74 2.53 0.32 2.53 0.32 3.66 -4.97c1.98,0.51 3.91,1.16 5.78,1.94l-0.07 6.17 2.22 1.27 2.21 1.26 5.28 -3.18c1.62,1.22 3.16,2.55 4.6,3.99l-2.42 5.68 1.56 2.02 1.56 2.02 6.11 -0.93c1.02,1.74 1.93,3.56 2.71,5.46l-4.41 4.31 0.67 2.47 0.67 2.46 5.99 1.48c0.29,2.03 0.43,4.06 0.43,6.07l-5.73 2.31 -0.33 2.53 -0.32 2.53 4.97 3.66c-0.51,1.98 -1.16,3.91 -1.94,5.78l-6.17 -0.07 -1.26 2.22 -1.27 2.21 3.18 5.28c-1.22,1.62 -2.55,3.16 -3.99,4.6l-5.68 -2.42 -2.02 1.56 -2.01 1.56 0.92 6.11c-1.73,1.02 -3.55,1.93 -5.45,2.71l-4.32 -4.41 -2.46 0.67 -2.46 0.67 -1.49 5.99c-2.03,0.29 -4.06,0.43 -6.07,0.43l-2.31 -5.73 -2.53 -0.33 -2.53 -0.32 -3.66 4.97c-1.97,-0.51 -3.9,-1.16 -5.78,-1.94l0.07 -6.17 -2.21 -1.27 -2.22 -1.26 -5.28 3.18c-1.62,-1.22 -3.16,-2.55 -4.6,-3.99l2.42 -5.68 -1.56 -2.02 -1.56 -2.01 -6.11 0.92c-1.02,-1.73 -1.93,-3.55 -2.71,-5.45l4.41 -4.32 -0.67 -2.46 -0.67 -2.46 -5.99 -1.49c-0.29,-2.03 -0.43,-4.06 -0.43,-6.07l5.74 -2.31 0.32 -2.53 0.32 -2.53 -4.97 -3.66c0.52,-1.97 1.16,-3.9 1.94,-5.78l6.17 0.07 1.27 -2.21 1.26 -2.22 -3.18 -5.28c1.22,-1.62 2.55,-3.16 3.99,-4.6l5.68 2.42 2.02 -1.56 2.02 -1.56 -0.93 -6.11c1.74,-1.02 3.56,-1.93 5.45,-2.71l4.32 4.41 2.47 -0.67 2.46 -0.67 1.48 -5.99zm1.29 25.88c9.72,-2.64 19.74,3.09 22.39,12.81 2.65,9.72 -3.09,19.74 -12.81,22.39 -9.72,2.65 -19.74,-3.09 -22.39,-12.81 -2.64,-9.72 3.09,-19.74 12.81,-22.39z"/>
</svg>
