<svg xmlns="http://www.w3.org/2000/svg" viewBox="0 0 30 25.33">
  <path fill="#facd05" d="M7.12 0.4c-0.61,0.07 -1.26,0.5 -1.51,1.08l-2.27 5.29c-0.17,0.11 -0.31,0.22 -0.43,0.32l0 -2.37 -1.83 0c-0.46,0 -1.08,0.4 -1.08,0.86l0 0.87c0,0.33 0.42,0.73 0.76,0.75l1.45 0.09 0.35 0.17c-0.12,0.16 -0.2,0.32 -0.29,0.5 -0.08,0.15 -0.08,0.42 -0.17,0.56 -0.82,1.12 -1.02,1.49 -1.02,2.35l0 4.3c-0.2,0.2 -0.32,0.47 -0.32,0.77l0 8.31c0,0.6 0.48,1.08 1.07,1.08l2.27 0c0.59,0 1.08,-0.48 1.08,-1.08l0 -0.32 0.86 0c0.54,0 0.97,-0.44 0.97,-0.98l0 -2.26 15.98 0 0 2.26c0,0.54 0.43,0.98 0.97,0.98l0.86 0 0 0.32c0,0.6 0.49,1.08 1.08,1.08l2.27 0c0.59,0 1.07,-0.48 1.07,-1.08l0 -8.31c0,-0.3 -0.12,-0.57 -0.32,-0.77l0 -4.3c0,-0.86 -0.2,-1.23 -1.02,-2.35 -0.09,-0.14 -0.09,-0.41 -0.17,-0.56 -0.09,-0.18 -0.17,-0.34 -0.29,-0.5l0.35 -0.17 1.45 -0.09c0.34,-0.02 0.76,-0.42 0.76,-0.75l0 -0.87c0,-0.46 -0.62,-0.86 -1.08,-0.86l-1.83 0 0 2.37c-0.12,-0.1 -0.26,-0.21 -0.43,-0.32l-2.27 -5.29c-0.25,-0.58 -0.9,-1.01 -1.51,-1.08 -4.84,-0.53 -10.92,-0.53 -15.76,0zm-0.54 18.56c-1.66,0 -3.56,-0.21 -4.85,-1.07 1.92,0.39 3.23,0.64 4.85,0.64 0.22,-0.54 0.97,-0.85 1.73,-0.86l13.38 0c0.76,0.01 1.51,0.32 1.73,0.86 1.62,0 2.93,-0.25 4.85,-0.64 -1.29,0.86 -3.19,1.07 -4.85,1.07l-16.84 0zm2.7 -4.42c-0.63,-0.02 -1.38,-0.23 -1.73,-0.76l-1.18 -1.83c0.32,-0.22 0.54,-0.43 0.64,-0.75l15.98 0c0.1,0.32 0.32,0.53 0.64,0.75l-1.18 1.83c-0.35,0.53 -1.1,0.74 -1.73,0.76l-11.44 0zm-1.39 -8.63c-0.53,0 -1,0.43 -1.52,0.43l-1.62 0c-0.36,0 -0.55,-0.66 -0.41,-0.98l1.6 -3.66c0.19,-0.45 0.75,-0.78 1.24,-0.78l15.64 0c0.49,0 1.05,0.33 1.24,0.78l1.6 3.66c0.14,0.32 -0.05,0.98 -0.41,0.98l-1.62 0c-0.52,0 -0.99,-0.43 -1.52,-0.43l-14.22 0zm17.42 10.14c-0.51,0 -0.92,0.29 -0.92,0.65 0,0.36 0.41,0.65 0.92,0.65 0.5,0 0.91,-0.29 0.91,-0.65 0,-0.36 -0.41,-0.65 -0.91,-0.65zm2.72 -5.58c-0.19,-0.56 -0.4,-1 -0.4,-1.65 -0.97,0.22 -1.95,0.11 -2.81,-0.11 0,0.54 -0.32,0.76 -0.65,0.98l0 2.04c1.19,-0.1 2.28,-0.29 3.35,-0.53 0.33,-0.08 0.69,-0.22 0.51,-0.73zm-23.34 5.58c0.51,0 0.92,0.29 0.92,0.65 0,0.36 -0.41,0.65 -0.92,0.65 -0.5,0 -0.91,-0.29 -0.91,-0.65 0,-0.36 0.41,-0.65 0.91,-0.65zm-2.72 -5.58c0.19,-0.56 0.4,-1 0.4,-1.65 0.97,0.22 1.95,0.11 2.81,-0.11 0,0.54 0.32,0.76 0.65,0.98l0 2.04c-1.19,-0.1 -2.28,-0.29 -3.35,-0.53 -0.33,-0.08 -0.69,-0.22 -0.51,-0.73z"/>
</svg>
