<svg xmlns="http://www.w3.org/2000/svg" viewBox="0 0 20 29.43">
  <path fill="#1a1a1a" d="M4.07 2.33l0.58 0 0 2.79 -0.58 0c-2.3,0 -2.3,-2.79 0,-2.79zm5.35 17.21l1.16 0c1.35,0 1.51,-0.47 1.98,-1.4l1.39 4.65c0.39,1.29 -0.64,1.54 -1.98,1.54l-3.94 0c-1.34,0 -2.37,-0.25 -1.98,-1.54l1.39 -4.65c0.47,0.93 0.63,1.4 1.98,1.4zm-5.38 -4.66l2.01 0 -1.86 8.28c-0.39,1.73 1.45,3.22 3.22,3.22l5.18 0c1.77,0 3.61,-1.49 3.22,-3.22l-1.86 -8.28 2.01 0c2.22,0 4.04,1.82 4.04,4.04l0 6.47c0,2.22 -1.82,4.04 -4.04,4.04l-11.92 0c-2.22,0 -4.04,-1.82 -4.04,-4.04l0 -6.47c0,-2.22 1.82,-4.04 4.04,-4.04zm7.35 -1.39l0 3.25c0,1.85 -2.78,1.85 -2.78,0l0 -3.25 2.78 0zm-4.21 -13.49l6.1 0c1.14,0 2.07,0.93 2.07,2.07l0 3.31c0,1.13 -0.93,2.06 -2.07,2.06l-1.13 0c-0.45,1.08 -0.76,2.26 -0.99,4.19l-2.32 0c-0.23,-1.93 -0.54,-3.11 -0.99,-4.19l-0.67 0c-1.13,0 -2.06,-0.93 -2.06,-2.06l0 -3.31c0,-1.14 0.93,-2.07 2.06,-2.07z"/>
</svg>
