<svg xmlns="http://www.w3.org/2000/svg" viewBox="0 0 30 25.67">
  <path fill="#1a1a1a" d="M6.15 7.48l-1.4 1.4 1.8 1.79c0.39,0.39 1.01,0.39 1.4,0 0.38,-0.38 0.38,-1.01 0,-1.39l-1.8 -1.8zm4.01 10.68c0.6,0 1.08,0.49 1.08,1.09 0,0.6 -0.48,1.09 -1.08,1.09 -0.6,0 -1.09,-0.49 -1.09,-1.09 0,-0.6 0.49,-1.09 1.09,-1.09zm10.47 -1.16c0.48,0 0.87,0.39 0.87,0.87 0,0.48 -0.39,0.87 -0.87,0.87 -0.48,0 -0.87,-0.39 -0.87,-0.87 0,-0.48 0.39,-0.87 0.87,-0.87zm0 -1.6c-0.68,0 -1.3,0.27 -1.74,0.72 -0.45,0.45 -0.73,1.06 -0.73,1.75 0,0.68 0.28,1.3 0.73,1.74 0.44,0.45 1.06,0.73 1.74,0.73 0.69,0 1.3,-0.28 1.75,-0.73 0.45,-0.44 0.72,-1.06 0.72,-1.74 0,-0.69 -0.27,-1.3 -0.72,-1.75 -0.45,-0.45 -1.06,-0.72 -1.75,-0.72zm-5.53 -4.95c0.58,0 1.11,0.2 1.53,0.54l5.7 4.32 0.58 -1.73 0.58 -0.58c0.46,0.09 0.9,0.32 1.26,0.67 0.95,0.96 0.95,2.52 0,3.47 -0.31,0.31 -0.67,0.52 -1.05,0.63 0,0.03 0,0.06 0,0.1 0,0.62 -0.19,1.2 -0.51,1.69 1,-0.05 1.99,-0.45 2.76,-1.22 1.62,-1.62 1.62,-4.24 0,-5.87 -0.34,-0.33 -0.72,-0.6 -1.13,-0.8l1.61 -1.61 0.86 0.86c0.18,0.18 0.48,0.2 0.63,0l0.45 -0.6 -8.69 -8.69 -0.6 0.45c-0.2,0.15 -0.18,0.45 0,0.63l0.86 0.86 -3.52 3.52 -1.42 0 -1.42 0 -3.52 -3.52 0.86 -0.86c0.18,-0.18 0.2,-0.48 0,-0.63l-0.6 -0.45 -8.69 8.69 0.45 0.6c0.15,0.2 0.45,0.18 0.63,0l0.86 -0.86 1.61 1.61c-0.41,0.2 -0.79,0.47 -1.13,0.8 -1.62,1.63 -1.62,4.25 0,5.87 0.67,0.67 1.5,1.06 2.36,1.18 -0.01,-0.09 -0.01,-0.18 -0.01,-0.27 0,-0.5 0.1,-0.97 0.27,-1.41 -0.52,-0.06 -1.02,-0.3 -1.42,-0.7 -0.95,-0.95 -0.95,-2.51 0,-3.47 0.36,-0.35 0.8,-0.58 1.26,-0.67l0.58 0.58 0.88 2.6 5.4 -5.03c0.45,-0.43 1.06,-0.7 1.73,-0.7zm5.58 4.35l-3.17 -2.4c0.04,0.17 0.06,0.34 0.06,0.52 0,0.69 -0.28,1.3 -0.72,1.75 -0.45,0.45 -1.07,0.73 -1.75,0.73 -0.68,0 -1.3,-0.28 -1.75,-0.73l0 0c-0.45,-0.45 -0.72,-1.06 -0.72,-1.75 0,-0.09 0,-0.19 0.01,-0.28l-3.12 2.91c0.21,-0.04 0.42,-0.06 0.64,-0.06 1.03,0 1.97,0.43 2.65,1.1 0.68,0.68 1.1,1.62 1.1,2.66 0,0.31 -0.03,0.61 -0.1,0.89l4.6 -4.39 0.06 -0.05c0.55,-0.55 1.32,-0.9 2.16,-0.9l0.05 0zm-3.06 2.53l-3.37 3.2 0.39 0 0 0.02 0.72 0 0 -0.02 2.47 0 0 0.02 0.73 0 0 -0.02 0.57 0c-0.25,-0.13 -0.47,-0.3 -0.66,-0.5 -0.56,-0.55 -0.9,-1.32 -0.9,-2.16 0,-0.19 0.02,-0.36 0.05,-0.54zm-1.19 -5.73c-0.34,-0.34 -0.81,-0.55 -1.33,-0.55 -0.52,0 -0.99,0.21 -1.33,0.55 -0.34,0.34 -0.55,0.81 -0.55,1.32 0,0.52 0.21,0.99 0.55,1.33 0.34,0.34 0.81,0.55 1.33,0.55 0.52,0 0.99,-0.21 1.33,-0.55 0.34,-0.34 0.55,-0.81 0.55,-1.33 0,-0.51 -0.21,-0.98 -0.55,-1.32zm-4.04 5.41c-0.57,-0.57 -1.36,-0.92 -2.23,-0.92 -0.88,0 -1.67,0.35 -2.24,0.92 -0.57,0.58 -0.93,1.37 -0.93,2.24 0,0.87 0.36,1.66 0.93,2.24 0.57,0.57 1.36,0.92 2.24,0.92 0.87,0 1.66,-0.35 2.23,-0.92 0.57,-0.58 0.93,-1.37 0.93,-2.24 0,-0.87 -0.36,-1.66 -0.93,-2.24zm-0.22 5.41l0 2.27 -0.73 0 0 -1.91c0.26,-0.09 0.5,-0.21 0.73,-0.36zm-1.12 0.48l0 1.79 0 0.59c0,0.22 -0.18,0.39 -0.4,0.39l-0.89 0c-0.22,0 -0.39,-0.17 -0.39,-0.39l0 -2.36c0.25,0.06 0.52,0.09 0.79,0.09 0.3,0 0.6,-0.04 0.89,-0.11zm2.79 -1.97l0.4 0 0 3.76 0 0.59c0,0.22 -0.18,0.39 -0.39,0.39l-0.89 0c-0.22,0 -0.4,-0.17 -0.4,-0.39l0 -0.59 0 -2.55c0.08,-0.07 0.16,-0.15 0.24,-0.22l1.04 -0.99zm3.6 3.76l0 0.59c0,0.22 -0.18,0.39 -0.4,0.39l-0.89 0c-0.21,0 -0.39,-0.17 -0.39,-0.39l0 -0.59 0 -3.76 1.68 0 0 3.76zm3.19 -3.76l0 4.35c0,0.22 -0.17,0.39 -0.39,0.39l-0.89 0c-0.22,0 -0.4,-0.17 -0.4,-0.39l0 -0.59 0 -3.76 1.49 0 0.19 0zm-5.99 3.76l0.72 0 0 -3.76 -0.72 0 0 3.76zm3.19 0l0.73 0 0 -3.76 -0.73 0 0 3.76zm6.02 -17.21l1.4 1.4 -1.8 1.79c-0.39,0.39 -1.01,0.39 -1.4,0 -0.38,-0.38 -0.38,-1.01 0,-1.39l1.8 -1.8zm-2.73 -2.73l1.4 1.4 -1.8 1.8c-0.38,0.38 -1.01,0.38 -1.39,0 -0.39,-0.39 -0.39,-1.01 0,-1.4l1.79 -1.8zm7.62 5.06l0.77 -1.04c0.53,-0.72 0.82,-1.84 -0.15,-2.81l-5.32 -5.32c-0.97,-0.97 -2.09,-0.68 -2.81,-0.15l-1.04 0.77 8.55 8.55zm-19.86 -5.06l-1.4 1.4 1.8 1.8c0.38,0.38 1.01,0.38 1.39,0 0.39,-0.39 0.39,-1.01 0,-1.4l-1.79 -1.8zm-7.62 5.06l-0.77 -1.04c-0.53,-0.72 -0.82,-1.84 0.15,-2.81l5.32 -5.32c0.97,-0.97 2.09,-0.68 2.81,-0.15l1.04 0.77 -8.55 8.55z"/>
</svg>
