<svg xmlns="http://www.w3.org/2000/svg" viewBox="0 0 30 25.14">
  <path fill="#facd05" d="M13.14 11.17l3.72 0c2.82,0 5.12,2.31 5.12,5.12l0 8.85 -13.96 0 0 -8.85c0,-2.81 2.3,-5.12 5.12,-5.12zm-7.32 -6.51c-2.06,0 -3.72,1.66 -3.72,3.72 0,2.06 1.66,3.73 3.72,3.73 2.06,0 3.72,-1.67 3.72,-3.73 0,-2.06 -1.66,-3.72 -3.72,-3.72zm0.23 8.84l-1.78 0c-2.35,0 -4.27,1.92 -4.27,4.27l0 7.37 6.05 0 0 -11.64zm18.13 -8.84c2.06,0 3.72,1.66 3.72,3.72 0,2.06 -1.66,3.73 -3.72,3.73 -2.06,0 -3.72,-1.67 -3.72,-3.73 0,-2.06 1.66,-3.72 3.72,-3.72zm-9.18 -4.66c2.83,0 5.12,2.29 5.12,5.12 0,2.83 -2.29,5.12 -5.12,5.12 -2.83,0 -5.12,-2.29 -5.12,-5.12 0,-2.83 2.29,-5.12 5.12,-5.12zm8.95 13.5l1.78 0c2.35,0 4.27,1.92 4.27,4.27l0 7.37 -6.05 0 0 -11.64z"/>
</svg>
