<svg xmlns="http://www.w3.org/2000/svg" viewBox="0 0 27 29.79">
  <path fill="#1a1a1a" d="M0.93 29.79l15.36 0c0.52,0 0.93,-0.41 0.93,-0.93l0 -26.53c0,-1.28 -1.04,-2.33 -2.32,-2.33l-12.57 0c-1.28,0 -2.33,1.05 -2.33,2.33l0 26.53c0,0.52 0.42,0.93 0.93,0.93zm26.07 -9.37l0 4.25 0 0c0,1.54 -1.26,2.8 -2.79,2.8 -1.54,0 -2.79,-1.26 -2.8,-2.8l0 0 0 -4.25 0 -4.23c0,-0.56 -0.5,-1.29 -1.05,-1.29l-1.04 0 0 -1.74 2.09 0c0.83,0 1.74,0.92 1.74,1.74l0 2.93 0 6.72c0,0.58 0.48,1.05 1.06,1.05 0.58,0 1.05,-0.47 1.05,-1.05l0 -6.72 0 -3.86 -0.59 0c-1.28,0 -2.32,-1.05 -2.32,-2.33l0 -4.66 -2.8 0 0 -1.39 2.8 0 1.62 0 0.7 0c1.28,0 2.33,1.04 2.33,2.32l0 3.96 0 2.1 0 6.45zm-18.39 2.32c-0.73,0 -1.32,-0.55 -1.32,-1.22 0,-0.68 0.76,-1.99 1.32,-2.74 0.57,0.75 1.32,2.06 1.32,2.74 0,0.67 -0.59,1.22 -1.32,1.22zm-3.94 -18.08l7.88 0 0 5.12 -7.88 0 0 -5.12zm-0.9 -1.87l9.69 0c0.53,0 0.97,0.44 0.97,0.98l0 7.36c0,0.54 -0.44,0.97 -0.97,0.97l-9.69 0c-0.54,0 -0.98,-0.43 -0.98,-0.97l0 -7.36c0,-0.54 0.44,-0.98 0.98,-0.98zm4.84 21.88c-1.8,0 -3.26,-1.35 -3.26,-3.02 0,-1.67 1.87,-4.89 3.26,-6.75 1.4,1.86 3.26,5.08 3.26,6.75 0,1.67 -1.46,3.02 -3.26,3.02z"/>
</svg>
