<svg xmlns="http://www.w3.org/2000/svg" viewBox="0 0 817.82 817.82" style="shape-rendering:geometricPrecision; text-rendering:geometricPrecision; image-rendering:optimizeQuality; fill-rule:evenodd; clip-rule:evenodd">
  <path fill="#facd05" d="M371.5 1.75c25.86,-2.4 51.56,-2.3 76.8,0.15l18.81 73.3 30.61 8.08 30.61 8.06 51.71 -53.7c23.3,10.75 45.56,23.67 66.46,38.58l-20.35 72.78 22.49 22.3 22.48 22.3 71.72 -20.68c14.64,20.7 27.47,42.96 38.21,66.63l-54.05 52.89 8.33 30.56 8.31 30.54 72.43 17.96c2.4,25.86 2.3,51.56 -0.15,76.8l-73.3 18.8 -8.08 30.61 -8.06 30.61 53.69 51.71c-10.75,23.3 -23.68,45.56 -38.59,66.46l-72.77 -20.34 -22.3 22.48 -22.29 22.48 20.67 71.7c-20.7,14.64 -42.97,27.49 -66.63,38.22l-52.89 -54.04 -30.55 8.33 -30.55 8.31 -17.94 72.44c-25.86,2.39 -51.57,2.29 -76.81,-0.16l-18.8 -73.3 -30.62 -8.08 -30.6 -8.06 -51.72 53.69c-23.29,-10.75 -45.55,-23.67 -66.45,-38.59l20.34 -72.77 -22.49 -22.3 -22.47 -22.29 -71.7 20.68c-14.64,-20.7 -27.48,-42.97 -38.22,-66.64l54.03 -52.88 -8.32 -30.56 -8.31 -30.54 -72.44 -17.95c-2.4,-25.86 -2.29,-51.57 0.16,-76.81l73.29 -18.79 8.08 -30.63 8.07 -30.6 -53.7 -51.71c10.76,-23.3 23.68,-45.56 38.59,-66.46l72.77 20.34 22.3 -22.48 22.3 -22.47 -20.68 -71.71c20.7,-14.64 42.97,-27.48 66.64,-38.22l52.88 54.04 30.55 -8.33 30.55 -8.31 17.95 -72.43zm-9.69 234.14c95.55,-26.01 194.1,30.36 220.12,125.9 26.02,95.55 -30.35,194.1 -125.9,220.12 -95.54,26.02 -194.1,-30.35 -220.11,-125.9 -26.02,-95.54 30.34,-194.1 125.89,-220.12z"/>
</svg>
